<svg xmlns="http://www.w3.org/2000/svg" width="36" height="32">
    <path fill="#D8D8D8" fill-rule="evenodd" d="M33 9h-5.095a1.526 1.526 0 0 0-.132-.294l-4.999-8a1.502 1.502 0 0 0-2.547 1.588L24.418 9H11.582l4.192-6.706A1.5 1.5 0 0 0 13.227.706l-5 8A1.526 1.526 0 0 0 8.095 9H3a3 3 0 0 0-3 3v2c0 1.421.991 2.604 2.317 2.915l3.804 12.933A3.002 3.002 0 0 0 9 32h18a3.002 3.002 0 0 0 2.879-2.152l3.804-12.933A2.998 2.998 0 0 0 36 14v-2a3 3 0 0 0-3-3zM3 12h30v2H3v-2zm24 17l-18.001.002L5.47 17h25.06L27 29z"/>
</svg>
